<mxfile host="app.diagrams.net" modified="2024-06-28T16:02:12.904Z" agent="Mozilla/5.0 (Windows NT 10.0; Win64; x64) AppleWebKit/537.36 (KHTML, like Gecko) Chrome/126.0.0.0 Safari/537.36 Edg/126.0.0.0" etag="CT5O1ryWZwYGSY2PDlwC" version="24.6.4" type="github">
  <diagram id="C5RBs43oDa-KdzZeNtuy" name="Page-1">
    <mxGraphModel dx="1426" dy="793" grid="1" gridSize="10" guides="1" tooltips="1" connect="1" arrows="1" fold="1" page="1" pageScale="1" pageWidth="827" pageHeight="1169" math="0" shadow="0">
      <root>
        <mxCell id="WIyWlLk6GJQsqaUBKTNV-0" />
        <mxCell id="WIyWlLk6GJQsqaUBKTNV-1" parent="WIyWlLk6GJQsqaUBKTNV-0" />
        <mxCell id="WIyWlLk6GJQsqaUBKTNV-2" value="" style="rounded=0;html=1;jettySize=auto;orthogonalLoop=1;fontSize=11;endArrow=block;endFill=0;endSize=8;strokeWidth=1;shadow=0;labelBackgroundColor=none;edgeStyle=orthogonalEdgeStyle;" parent="WIyWlLk6GJQsqaUBKTNV-1" source="WIyWlLk6GJQsqaUBKTNV-3" target="WIyWlLk6GJQsqaUBKTNV-6" edge="1">
          <mxGeometry relative="1" as="geometry" />
        </mxCell>
        <mxCell id="MYzs-p7aQHIfsuUYS8KO-1" value="Push to GitHub" style="edgeLabel;html=1;align=center;verticalAlign=middle;resizable=0;points=[];" parent="WIyWlLk6GJQsqaUBKTNV-2" vertex="1" connectable="0">
          <mxGeometry x="-0.32" y="-2" relative="1" as="geometry">
            <mxPoint as="offset" />
          </mxGeometry>
        </mxCell>
        <mxCell id="MYzs-p7aQHIfsuUYS8KO-24" style="edgeStyle=orthogonalEdgeStyle;rounded=0;orthogonalLoop=1;jettySize=auto;html=1;exitX=1;exitY=0.5;exitDx=0;exitDy=0;entryX=0;entryY=0.5;entryDx=0;entryDy=0;" parent="WIyWlLk6GJQsqaUBKTNV-1" source="WIyWlLk6GJQsqaUBKTNV-3" target="MYzs-p7aQHIfsuUYS8KO-23" edge="1">
          <mxGeometry relative="1" as="geometry" />
        </mxCell>
        <mxCell id="WIyWlLk6GJQsqaUBKTNV-3" value="CNF creation" style="rounded=1;whiteSpace=wrap;html=1;fontSize=12;glass=0;strokeWidth=1;shadow=0;" parent="WIyWlLk6GJQsqaUBKTNV-1" vertex="1">
          <mxGeometry x="159" y="150" width="120" height="40" as="geometry" />
        </mxCell>
        <mxCell id="MYzs-p7aQHIfsuUYS8KO-5" style="edgeStyle=orthogonalEdgeStyle;rounded=0;orthogonalLoop=1;jettySize=auto;html=1;exitX=1;exitY=0.5;exitDx=0;exitDy=0;entryX=0;entryY=0.5;entryDx=0;entryDy=0;" parent="WIyWlLk6GJQsqaUBKTNV-1" source="WIyWlLk6GJQsqaUBKTNV-6" target="WIyWlLk6GJQsqaUBKTNV-7" edge="1">
          <mxGeometry relative="1" as="geometry" />
        </mxCell>
        <mxCell id="MYzs-p7aQHIfsuUYS8KO-6" value="Trigger" style="edgeLabel;html=1;align=center;verticalAlign=middle;resizable=0;points=[];" parent="MYzs-p7aQHIfsuUYS8KO-5" vertex="1" connectable="0">
          <mxGeometry x="-0.0099" y="3" relative="1" as="geometry">
            <mxPoint as="offset" />
          </mxGeometry>
        </mxCell>
        <mxCell id="MYzs-p7aQHIfsuUYS8KO-10" style="edgeStyle=orthogonalEdgeStyle;rounded=0;orthogonalLoop=1;jettySize=auto;html=1;exitX=0.5;exitY=1;exitDx=0;exitDy=0;entryX=0;entryY=0.5;entryDx=0;entryDy=0;" parent="WIyWlLk6GJQsqaUBKTNV-1" source="WIyWlLk6GJQsqaUBKTNV-6" target="WIyWlLk6GJQsqaUBKTNV-3" edge="1">
          <mxGeometry relative="1" as="geometry">
            <Array as="points">
              <mxPoint x="219" y="310" />
              <mxPoint x="220" y="310" />
              <mxPoint x="220" y="420" />
              <mxPoint x="90" y="420" />
              <mxPoint x="90" y="170" />
            </Array>
          </mxGeometry>
        </mxCell>
        <mxCell id="MYzs-p7aQHIfsuUYS8KO-29" value="No" style="edgeLabel;html=1;align=center;verticalAlign=middle;resizable=0;points=[];" parent="MYzs-p7aQHIfsuUYS8KO-10" vertex="1" connectable="0">
          <mxGeometry x="-0.3534" relative="1" as="geometry">
            <mxPoint as="offset" />
          </mxGeometry>
        </mxCell>
        <mxCell id="WIyWlLk6GJQsqaUBKTNV-6" value="DevOps pipeline&amp;nbsp;&lt;div&gt;&lt;b&gt;refresh-cnf-tables&lt;/b&gt;&amp;nbsp;&lt;/div&gt;&lt;div&gt;is triggered.&lt;/div&gt;" style="rhombus;whiteSpace=wrap;html=1;shadow=0;fontFamily=Helvetica;fontSize=12;align=center;strokeWidth=1;spacing=6;spacingTop=-4;" parent="WIyWlLk6GJQsqaUBKTNV-1" vertex="1">
          <mxGeometry x="119" y="250" width="200" height="100" as="geometry" />
        </mxCell>
        <mxCell id="WIyWlLk6GJQsqaUBKTNV-7" value="Azure Data Factory Pipeline &lt;b&gt;pI_Refresh_Cnf&lt;/b&gt;" style="rounded=1;whiteSpace=wrap;html=1;fontSize=12;glass=0;strokeWidth=1;shadow=0;" parent="WIyWlLk6GJQsqaUBKTNV-1" vertex="1">
          <mxGeometry x="510" y="270" width="160" height="60" as="geometry" />
        </mxCell>
        <mxCell id="MYzs-p7aQHIfsuUYS8KO-8" style="edgeStyle=orthogonalEdgeStyle;rounded=0;orthogonalLoop=1;jettySize=auto;html=1;exitX=0.5;exitY=1;exitDx=0;exitDy=0;entryX=0.5;entryY=0;entryDx=0;entryDy=0;" parent="WIyWlLk6GJQsqaUBKTNV-1" source="MYzs-p7aQHIfsuUYS8KO-7" target="WIyWlLk6GJQsqaUBKTNV-3" edge="1">
          <mxGeometry relative="1" as="geometry" />
        </mxCell>
        <mxCell id="MYzs-p7aQHIfsuUYS8KO-7" value="Secret creation" style="rounded=1;whiteSpace=wrap;html=1;fontSize=12;glass=0;strokeWidth=1;shadow=0;" parent="WIyWlLk6GJQsqaUBKTNV-1" vertex="1">
          <mxGeometry x="159" y="60" width="120" height="40" as="geometry" />
        </mxCell>
        <mxCell id="MYzs-p7aQHIfsuUYS8KO-42" style="edgeStyle=orthogonalEdgeStyle;rounded=0;orthogonalLoop=1;jettySize=auto;html=1;exitX=0.5;exitY=1;exitDx=0;exitDy=0;entryX=0.5;entryY=0;entryDx=0;entryDy=0;" parent="WIyWlLk6GJQsqaUBKTNV-1" source="MYzs-p7aQHIfsuUYS8KO-16" target="MYzs-p7aQHIfsuUYS8KO-25" edge="1">
          <mxGeometry relative="1" as="geometry" />
        </mxCell>
        <mxCell id="MYzs-p7aQHIfsuUYS8KO-43" value="Push to GitHub" style="edgeLabel;html=1;align=center;verticalAlign=middle;resizable=0;points=[];" parent="MYzs-p7aQHIfsuUYS8KO-42" vertex="1" connectable="0">
          <mxGeometry x="-0.2" y="1" relative="1" as="geometry">
            <mxPoint as="offset" />
          </mxGeometry>
        </mxCell>
        <mxCell id="MYzs-p7aQHIfsuUYS8KO-16" value="Create json file for table you want to integrate" style="rounded=1;whiteSpace=wrap;html=1;fontSize=12;glass=0;strokeWidth=1;shadow=0;" parent="WIyWlLk6GJQsqaUBKTNV-1" vertex="1">
          <mxGeometry x="143.5" y="690" width="151" height="60" as="geometry" />
        </mxCell>
        <mxCell id="MYzs-p7aQHIfsuUYS8KO-23" value="&lt;ul&gt;&lt;li&gt;refine_tables_cnf&lt;/li&gt;&lt;li&gt;source_system_cnf&lt;/li&gt;&lt;li&gt;columns_to_keep&lt;/li&gt;&lt;/ul&gt;" style="text;strokeColor=none;fillColor=none;html=1;whiteSpace=wrap;verticalAlign=middle;overflow=hidden;" parent="WIyWlLk6GJQsqaUBKTNV-1" vertex="1">
          <mxGeometry x="500" y="130" width="180" height="80" as="geometry" />
        </mxCell>
        <mxCell id="MYzs-p7aQHIfsuUYS8KO-46" style="edgeStyle=orthogonalEdgeStyle;rounded=0;orthogonalLoop=1;jettySize=auto;html=1;exitX=0.5;exitY=1;exitDx=0;exitDy=0;" parent="WIyWlLk6GJQsqaUBKTNV-1" source="MYzs-p7aQHIfsuUYS8KO-25" target="MYzs-p7aQHIfsuUYS8KO-44" edge="1">
          <mxGeometry relative="1" as="geometry" />
        </mxCell>
        <mxCell id="MYzs-p7aQHIfsuUYS8KO-25" value="DevOps pipeline&amp;nbsp;&lt;br&gt;&lt;div&gt;&lt;span style=&quot;background-color: initial;&quot;&gt;&lt;b&gt;run-workflow-create-delta-table&lt;/b&gt;&lt;/span&gt;&lt;span style=&quot;background-color: initial;&quot;&gt;&lt;b&gt;is&lt;/b&gt;&amp;nbsp;&lt;/span&gt;&lt;/div&gt;&lt;div&gt;&lt;span style=&quot;background-color: initial;&quot;&gt;triggered.&lt;/span&gt;&lt;br&gt;&lt;/div&gt;" style="rhombus;whiteSpace=wrap;html=1;" parent="WIyWlLk6GJQsqaUBKTNV-1" vertex="1">
          <mxGeometry x="110.5" y="870" width="217" height="130" as="geometry" />
        </mxCell>
        <mxCell id="MYzs-p7aQHIfsuUYS8KO-32" style="edgeStyle=orthogonalEdgeStyle;rounded=0;orthogonalLoop=1;jettySize=auto;html=1;exitX=0.5;exitY=1;exitDx=0;exitDy=0;" parent="WIyWlLk6GJQsqaUBKTNV-1" source="MYzs-p7aQHIfsuUYS8KO-27" target="MYzs-p7aQHIfsuUYS8KO-31" edge="1">
          <mxGeometry relative="1" as="geometry" />
        </mxCell>
        <mxCell id="MYzs-p7aQHIfsuUYS8KO-33" value="Yes" style="edgeLabel;html=1;align=center;verticalAlign=middle;resizable=0;points=[];" parent="MYzs-p7aQHIfsuUYS8KO-32" vertex="1" connectable="0">
          <mxGeometry x="-0.2" relative="1" as="geometry">
            <mxPoint as="offset" />
          </mxGeometry>
        </mxCell>
        <mxCell id="MYzs-p7aQHIfsuUYS8KO-27" value="SUCCESS?" style="ellipse;shape=doubleEllipse;whiteSpace=wrap;html=1;" parent="WIyWlLk6GJQsqaUBKTNV-1" vertex="1">
          <mxGeometry x="169" y="390" width="100" height="60" as="geometry" />
        </mxCell>
        <mxCell id="MYzs-p7aQHIfsuUYS8KO-35" style="edgeStyle=orthogonalEdgeStyle;rounded=0;orthogonalLoop=1;jettySize=auto;html=1;exitX=0.5;exitY=1;exitDx=0;exitDy=0;" parent="WIyWlLk6GJQsqaUBKTNV-1" source="MYzs-p7aQHIfsuUYS8KO-31" target="MYzs-p7aQHIfsuUYS8KO-16" edge="1">
          <mxGeometry relative="1" as="geometry" />
        </mxCell>
        <mxCell id="MYzs-p7aQHIfsuUYS8KO-36" value="Yes" style="edgeLabel;html=1;align=center;verticalAlign=middle;resizable=0;points=[];" parent="MYzs-p7aQHIfsuUYS8KO-35" vertex="1" connectable="0">
          <mxGeometry x="-0.1833" relative="1" as="geometry">
            <mxPoint as="offset" />
          </mxGeometry>
        </mxCell>
        <mxCell id="Dle0YSEPf0w_UnXYIpnk-5" style="edgeStyle=orthogonalEdgeStyle;rounded=0;orthogonalLoop=1;jettySize=auto;html=1;exitX=1;exitY=0.5;exitDx=0;exitDy=0;entryX=0;entryY=0.5;entryDx=0;entryDy=0;" edge="1" parent="WIyWlLk6GJQsqaUBKTNV-1" source="MYzs-p7aQHIfsuUYS8KO-31" target="MYzs-p7aQHIfsuUYS8KO-37">
          <mxGeometry relative="1" as="geometry" />
        </mxCell>
        <mxCell id="Dle0YSEPf0w_UnXYIpnk-6" value="No" style="edgeLabel;html=1;align=center;verticalAlign=middle;resizable=0;points=[];" vertex="1" connectable="0" parent="Dle0YSEPf0w_UnXYIpnk-5">
          <mxGeometry x="0.1442" y="1" relative="1" as="geometry">
            <mxPoint y="1" as="offset" />
          </mxGeometry>
        </mxCell>
        <mxCell id="MYzs-p7aQHIfsuUYS8KO-31" value="The system is already preesent?" style="ellipse;shape=doubleEllipse;whiteSpace=wrap;html=1;" parent="WIyWlLk6GJQsqaUBKTNV-1" vertex="1">
          <mxGeometry x="148.5" y="530" width="141" height="70" as="geometry" />
        </mxCell>
        <mxCell id="MYzs-p7aQHIfsuUYS8KO-47" style="edgeStyle=orthogonalEdgeStyle;rounded=0;orthogonalLoop=1;jettySize=auto;html=1;entryX=1;entryY=0.5;entryDx=0;entryDy=0;" parent="WIyWlLk6GJQsqaUBKTNV-1" source="MYzs-p7aQHIfsuUYS8KO-37" target="MYzs-p7aQHIfsuUYS8KO-16" edge="1">
          <mxGeometry relative="1" as="geometry">
            <Array as="points">
              <mxPoint x="590" y="720" />
            </Array>
          </mxGeometry>
        </mxCell>
        <mxCell id="MYzs-p7aQHIfsuUYS8KO-37" value="Modify DevOps pipeline&amp;nbsp;run-workflow-create-delta-table&amp;nbsp;&lt;span style=&quot;background-color: initial;&quot;&gt;&amp;nbsp;by adding&lt;/span&gt;&lt;div&gt;the new system in the &lt;span style=&quot;background-color: initial;&quot;&gt;variable systems:&lt;/span&gt;&lt;/div&gt;" style="rounded=1;whiteSpace=wrap;html=1;fontSize=12;glass=0;strokeWidth=1;shadow=0;" parent="WIyWlLk6GJQsqaUBKTNV-1" vertex="1">
          <mxGeometry x="490" y="530" width="220" height="85" as="geometry" />
        </mxCell>
        <mxCell id="MYzs-p7aQHIfsuUYS8KO-44" value="Launch this workflow gmdfdp-create-table-direct-ingestion" style="rounded=1;whiteSpace=wrap;html=1;fontSize=12;glass=0;strokeWidth=1;shadow=0;" parent="WIyWlLk6GJQsqaUBKTNV-1" vertex="1">
          <mxGeometry x="143.5" y="1040" width="151" height="60" as="geometry" />
        </mxCell>
        <mxCell id="MYzs-p7aQHIfsuUYS8KO-49" value="TABLE CREATION" style="text;html=1;align=center;verticalAlign=middle;whiteSpace=wrap;rounded=0;" parent="WIyWlLk6GJQsqaUBKTNV-1" vertex="1">
          <mxGeometry x="28" y="10" width="141" height="30" as="geometry" />
        </mxCell>
        <mxCell id="MYzs-p7aQHIfsuUYS8KO-50" value="launch the Azure Data Factory &lt;b&gt;pI_Source_to_Raw&lt;/b&gt;" style="rounded=1;whiteSpace=wrap;html=1;" parent="WIyWlLk6GJQsqaUBKTNV-1" vertex="1">
          <mxGeometry x="50" y="1290" width="210" height="80" as="geometry" />
        </mxCell>
        <mxCell id="Dle0YSEPf0w_UnXYIpnk-2" value="" style="rounded=0;whiteSpace=wrap;html=1;fillColor=none;strokeColor=#f20202;" vertex="1" parent="WIyWlLk6GJQsqaUBKTNV-1">
          <mxGeometry x="36" y="1260" width="724" height="140" as="geometry" />
        </mxCell>
        <mxCell id="Dle0YSEPf0w_UnXYIpnk-3" value="POPULATE RAW TABLE" style="text;html=1;align=center;verticalAlign=middle;whiteSpace=wrap;rounded=0;" vertex="1" parent="WIyWlLk6GJQsqaUBKTNV-1">
          <mxGeometry x="36" y="1220" width="141" height="30" as="geometry" />
        </mxCell>
        <mxCell id="Dle0YSEPf0w_UnXYIpnk-10" value="" style="rounded=0;whiteSpace=wrap;html=1;fillColor=none;strokeColor=#ff0000;" vertex="1" parent="WIyWlLk6GJQsqaUBKTNV-1">
          <mxGeometry x="40" y="40" width="720" height="1080" as="geometry" />
        </mxCell>
        <mxCell id="Dle0YSEPf0w_UnXYIpnk-11" value="POPULATE REFINE TABLE" style="text;html=1;align=center;verticalAlign=middle;whiteSpace=wrap;rounded=0;" vertex="1" parent="WIyWlLk6GJQsqaUBKTNV-1">
          <mxGeometry x="36" y="1450" width="164" height="30" as="geometry" />
        </mxCell>
        <mxCell id="Dle0YSEPf0w_UnXYIpnk-16" style="edgeStyle=orthogonalEdgeStyle;rounded=0;orthogonalLoop=1;jettySize=auto;html=1;exitX=0.5;exitY=1;exitDx=0;exitDy=0;entryX=0.5;entryY=0;entryDx=0;entryDy=0;" edge="1" parent="WIyWlLk6GJQsqaUBKTNV-1" source="Dle0YSEPf0w_UnXYIpnk-12" target="Dle0YSEPf0w_UnXYIpnk-13">
          <mxGeometry relative="1" as="geometry" />
        </mxCell>
        <mxCell id="Dle0YSEPf0w_UnXYIpnk-12" value="&lt;div style=&quot;text-align: justify;&quot;&gt;&lt;span style=&quot;background-color: initial;&quot;&gt;Create DevOps pipeline for the new r_src_id copying from an existing one and changing:&lt;/span&gt;&lt;/div&gt;&lt;div&gt;&lt;ol&gt;&lt;li style=&quot;text-align: justify;&quot;&gt;Name&lt;/li&gt;&lt;li style=&quot;text-align: justify;&quot;&gt;Variables:&lt;/li&gt;&lt;ul&gt;&lt;li style=&quot;text-align: justify;&quot;&gt;&lt;span style=&quot;background-color: initial;&quot;&gt;r_src_id&lt;/span&gt;&lt;/li&gt;&lt;li style=&quot;text-align: justify;&quot;&gt;workflowName&lt;/li&gt;&lt;/ul&gt;&lt;/ol&gt;&lt;div style=&quot;text-align: justify;&quot;&gt;Eventually change cron and statusshedule. Then Save and queue&lt;/div&gt;&lt;/div&gt;" style="rounded=1;whiteSpace=wrap;html=1;align=center;" vertex="1" parent="WIyWlLk6GJQsqaUBKTNV-1">
          <mxGeometry x="70" y="1520" width="510" height="180" as="geometry" />
        </mxCell>
        <mxCell id="Dle0YSEPf0w_UnXYIpnk-13" value="Launch the new workflow created on databricks" style="rounded=1;whiteSpace=wrap;html=1;" vertex="1" parent="WIyWlLk6GJQsqaUBKTNV-1">
          <mxGeometry x="198.5" y="1790" width="253" height="70" as="geometry" />
        </mxCell>
        <mxCell id="Dle0YSEPf0w_UnXYIpnk-15" value="" style="rounded=0;whiteSpace=wrap;html=1;fillColor=none;strokeColor=#f50505;" vertex="1" parent="WIyWlLk6GJQsqaUBKTNV-1">
          <mxGeometry x="38" y="1480" width="724" height="420" as="geometry" />
        </mxCell>
      </root>
    </mxGraphModel>
  </diagram>
</mxfile>
